<?xml version="1.0" standalone="no"?>
<!DOCTYPE svg PUBLIC "-//W3C//DTD SVG 20010904//EN"
 "http://www.w3.org/TR/2001/REC-SVG-20010904/DTD/svg10.dtd">
<svg version="1.0" xmlns="http://www.w3.org/2000/svg"
 width="1104.000000pt" height="1280.000000pt" viewBox="0 0 1104.000000 1280.000000"
 preserveAspectRatio="xMidYMid meet">
<metadata>
Created by potrace 1.15, written by Peter Selinger 2001-2017
</metadata>
<g transform="translate(0.000000,1280.000000) scale(0.100000,-0.100000)"
fill="#000000" stroke="none">
<path d="M4855 12785 c-146 -27 -274 -97 -347 -189 -37 -46 -46 -52 -101 -63
-176 -36 -316 -102 -408 -193 -73 -72 -104 -128 -120 -214 -18 -98 -6 -145 84
-333 45 -94 85 -172 88 -172 4 -1 10 31 14 69 8 78 31 121 83 157 98 66 341
54 568 -28 80 -29 204 -101 204 -118 0 -11 -38 -15 -342 -42 -142 -13 -258
-26 -258 -31 0 -4 4 -8 8 -8 20 0 482 -245 541 -287 175 -125 251 -251 251
-416 -1 -216 -92 -388 -243 -459 -101 -48 -142 -53 -434 -52 l-272 2 -7 -55
c-17 -142 24 -251 136 -356 38 -36 96 -81 129 -99 34 -18 61 -35 61 -38 -1 -8
-208 -121 -263 -143 -74 -29 -210 -29 -291 1 -33 12 -62 20 -64 17 -3 -2 -5
-35 -6 -73 -1 -179 157 -320 485 -431 l110 -37 -58 -41 c-146 -102 -283 -147
-443 -147 -142 1 -220 24 -444 133 -332 162 -406 235 -691 686 -70 110 -170
265 -224 345 -84 125 -102 161 -136 260 -34 103 -38 129 -43 243 -5 134 8 219
48 313 16 36 28 47 84 74 243 120 330 451 212 805 -67 200 -143 324 -245 401
-201 151 -495 233 -733 204 -245 -29 -475 -163 -599 -347 -138 -204 -201 -398
-374 -1153 -35 -157 -81 -339 -100 -405 -145 -494 -320 -788 -589 -990 l-78
-59 63 -18 c121 -35 201 -48 293 -48 213 0 360 80 527 288 34 42 71 80 82 85
29 11 49 -11 45 -47 -3 -21 -153 -241 -466 -683 -254 -358 -462 -654 -462
-658 0 -3 7 -17 16 -30 l16 -25 87 46 c125 67 300 185 401 270 146 122 322
320 400 448 l24 40 18 -40 c10 -21 18 -46 18 -54 0 -9 -28 -70 -63 -135 -215
-408 -526 -798 -920 -1152 l-128 -116 67 -43 c165 -107 336 -130 513 -70 152
51 367 229 649 536 66 72 130 132 151 142 l36 17 6 -47 5 -47 -260 -350 c-545
-733 -754 -991 -1066 -1318 -59 -61 -100 -113 -100 -125 0 -17 10 -22 63 -31
165 -29 145 -32 254 49 669 500 1012 857 1193 1242 l55 117 41 1 c66 0 79 -17
78 -99 -2 -68 -4 -73 -52 -138 -59 -80 -199 -295 -340 -520 -162 -258 -308
-479 -397 -599 -226 -304 -450 -519 -708 -678 l-77 -48 31 -37 c79 -93 214
-182 327 -215 124 -36 290 -30 444 18 107 33 231 129 448 346 232 231 384 433
621 825 86 142 102 163 141 183 24 12 52 20 60 17 17 -7 38 -81 38 -132 0 -32
-95 -186 -335 -543 -411 -613 -819 -1122 -1238 -1547 l-130 -132 17 -25 c9
-14 19 -26 23 -26 8 0 170 93 293 168 810 499 1298 1038 1620 1789 38 89 62
131 87 153 38 34 49 33 58 -9 5 -23 -9 -62 -64 -185 -365 -804 -823 -1525
-1389 -2186 -59 -68 -115 -134 -124 -146 -18 -22 -17 -22 80 -62 121 -50 180
-62 297 -63 152 -1 266 42 472 178 388 255 725 644 1063 1228 189 327 264 451
300 500 65 87 116 123 91 64 -6 -13 -30 -78 -55 -144 -103 -279 -221 -522
-445 -911 -175 -307 -203 -360 -230 -445 -20 -64 -27 -118 -23 -197 l2 -42 63
31 c184 93 339 245 510 502 90 136 157 252 317 552 68 127 143 260 167 297 42
63 110 134 120 125 2 -3 -19 -45 -47 -93 -29 -49 -92 -172 -142 -274 -351
-719 -413 -835 -555 -1033 -91 -125 -226 -271 -344 -369 -60 -50 -106 -95
-102 -98 5 -4 93 -36 196 -70 146 -50 185 -66 175 -75 -7 -7 -225 -185 -484
-397 l-471 -386 -171 -43 -171 -43 -63 27 c-129 55 -201 130 -343 357 -170
271 -271 324 -526 271 -301 -63 -474 -191 -666 -494 -30 -48 -53 -90 -50 -94
3 -3 36 5 74 18 88 30 158 30 204 1 20 -12 64 -54 99 -94 103 -120 191 -177
330 -215 57 -16 102 -18 357 -15 l292 2 -9 -30 c-44 -152 -210 -300 -390 -346
-40 -10 -112 -16 -209 -17 -144 -2 -148 -3 -213 -35 -181 -89 -299 -318 -315
-613 -9 -171 12 -311 78 -532 l22 -72 33 98 c37 109 57 147 106 194 49 48 105
63 263 73 84 5 159 15 187 25 87 31 157 123 187 250 31 128 115 275 221 389
59 63 224 196 244 196 4 0 5 -123 1 -277 l-7 -278 -55 -55 c-86 -85 -121 -172
-143 -347 -11 -83 -10 -83 26 -170 73 -179 176 -326 286 -410 49 -38 295 -183
309 -183 4 0 -2 35 -14 78 -14 52 -21 109 -21 177 -1 115 7 137 95 245 79 98
99 148 99 248 0 110 -25 217 -61 262 -73 90 -94 248 -83 623 l7 257 56 0 c38
0 72 -8 106 -24 65 -31 92 -57 148 -137 58 -84 105 -124 187 -163 l65 -31 185
0 c210 0 230 -5 276 -75 19 -29 28 -57 32 -107 5 -70 12 -83 48 -83 25 0 65
82 121 248 74 222 63 387 -38 582 -60 115 -102 166 -160 196 -106 53 -196 44
-426 -43 -154 -58 -257 -77 -313 -55 l-24 9 24 13 c56 29 361 238 472 322 137
105 331 274 437 381 l74 75 51 -15 c109 -32 165 -71 329 -233 141 -139 160
-154 167 -136 279 756 381 1009 525 1312 182 384 383 669 538 762 34 21 73 35
107 39 l53 6 -6 -124 c-7 -127 -18 -185 -57 -306 -95 -286 -339 -640 -726
-1050 -68 -72 -124 -133 -124 -136 0 -5 208 28 300 49 166 37 359 120 560 242
63 39 116 69 118 67 2 -2 -1 -11 -7 -22 -5 -10 -29 -58 -52 -108 -61 -130
-138 -205 -284 -276 -60 -29 -130 -67 -155 -84 -25 -18 -97 -61 -160 -95 -255
-141 -347 -225 -448 -412 -31 -58 -122 -290 -122 -312 0 -8 88 16 253 71 274
91 550 172 673 198 86 18 244 32 244 21 0 -18 -119 -241 -169 -316 -32 -49
-107 -137 -176 -207 -142 -144 -137 -142 -335 -124 -326 31 -408 25 -555 -43
-95 -44 -158 -89 -259 -186 -79 -76 -231 -248 -225 -254 9 -9 169 -51 474
-126 295 -73 443 -117 469 -140 18 -17 -156 -89 -275 -114 -179 -37 -511 -49
-759 -27 -109 10 -121 9 -208 -14 -245 -66 -452 -229 -560 -442 -37 -72 -65
-192 -66 -283 -1 -90 21 -230 36 -230 5 0 50 37 98 82 146 133 226 183 337
212 84 22 242 21 361 -3 134 -27 317 -49 507 -61 516 -33 883 75 1080 318 37
46 52 58 58 47 4 -8 32 -85 63 -171 30 -86 70 -192 89 -236 93 -211 247 -377
438 -469 45 -22 46 -22 94 -4 137 51 277 162 359 286 58 88 98 178 169 379 32
91 61 168 65 173 3 4 24 -15 46 -41 124 -154 297 -250 544 -303 96 -21 131
-23 390 -23 293 0 369 6 645 54 163 28 223 32 303 20 150 -21 238 -69 411
-225 52 -46 97 -82 101 -80 16 10 35 136 34 225 -1 306 -231 596 -559 708
-123 42 -154 45 -311 32 -184 -16 -524 -8 -649 14 -115 21 -235 58 -305 95
l-55 29 50 23 c64 28 209 70 399 114 160 38 498 125 505 131 5 5 -128 162
-201 235 -132 134 -280 225 -415 255 -58 13 -102 15 -201 10 -70 -3 -195 -9
-279 -12 l-152 -6 -119 118 c-131 132 -213 246 -298 416 -30 59 -54 109 -54
112 0 12 67 12 150 0 144 -22 364 -82 704 -194 169 -56 310 -99 313 -96 15 15
-101 297 -162 391 -83 131 -180 211 -405 338 -74 41 -153 89 -176 105 -23 17
-72 43 -111 59 -146 62 -245 150 -303 269 -40 84 -70 154 -66 154 2 0 51 -29
109 -65 196 -119 353 -190 525 -235 70 -19 298 -60 331 -60 7 0 -38 55 -100
121 -371 396 -579 684 -702 970 -59 137 -87 258 -94 396 l-6 123 39 0 c178 -1
407 -279 653 -792 133 -277 249 -559 437 -1068 54 -146 99 -267 101 -270 2 -2
65 59 141 136 151 154 232 214 334 245 l67 21 103 -104 c200 -200 432 -385
729 -580 182 -120 186 -126 84 -127 -62 -1 -98 9 -250 66 -159 61 -207 73
-287 73 -129 0 -204 -55 -292 -213 -97 -174 -115 -366 -55 -564 31 -103 109
-283 122 -283 47 1 57 12 57 64 1 58 19 118 47 148 44 51 185 80 287 60 66
-13 174 2 241 34 65 30 141 101 185 172 55 89 127 134 236 147 l61 7 7 -264
c10 -378 -7 -511 -78 -616 -43 -64 -66 -159 -66 -269 0 -108 19 -154 109 -263
79 -97 96 -146 88 -259 -4 -47 -15 -119 -26 -158 -10 -40 -17 -73 -15 -73 2 0
57 30 122 66 250 141 332 228 451 473 53 109 56 120 54 183 -6 162 -57 302
-147 396 l-54 57 -7 279 -8 279 64 -44 c95 -66 220 -189 278 -274 62 -89 99
-168 136 -289 30 -100 43 -124 94 -179 54 -57 119 -76 289 -87 130 -7 150 -11
200 -37 72 -36 111 -94 153 -223 18 -55 34 -98 36 -96 7 6 63 209 78 281 36
176 29 414 -17 565 -45 148 -137 281 -237 345 -79 49 -115 57 -261 56 -115 -1
-148 2 -217 22 -173 50 -317 178 -369 325 l-12 37 46 5 c26 3 119 1 207 -3
263 -13 392 3 525 66 51 25 89 55 175 143 117 119 154 144 208 144 29 0 126
-25 183 -47 28 -10 13 21 -68 140 -186 273 -343 386 -623 447 -138 30 -229 29
-297 -3 -65 -29 -141 -104 -199 -195 -23 -37 -70 -110 -104 -162 -91 -141
-185 -226 -295 -270 l-52 -21 -170 43 -170 42 -452 371 c-249 203 -466 382
-484 396 l-31 27 72 25 c40 14 127 44 195 67 67 24 122 45 122 49 -1 3 -32 30
-69 59 -38 29 -109 93 -158 142 -213 209 -358 426 -560 840 -280 572 -324 661
-367 734 -25 44 -44 81 -42 83 2 3 16 -3 29 -12 41 -27 117 -147 247 -390 314
-589 482 -826 694 -982 50 -37 184 -113 199 -113 2 0 7 25 10 55 13 128 -30
231 -262 635 -161 279 -285 522 -372 730 -70 169 -131 340 -120 340 5 0 32
-25 59 -56 48 -53 126 -180 322 -519 116 -203 313 -498 426 -640 271 -341 680
-674 929 -757 58 -19 91 -23 195 -23 111 0 134 3 210 29 47 15 107 39 133 53
l48 24 -99 112 c-566 643 -1061 1413 -1426 2221 -60 132 -76 175 -71 197 4 16
11 32 17 35 20 13 83 -65 112 -138 50 -124 171 -368 244 -490 285 -477 674
-866 1228 -1231 139 -92 446 -277 459 -277 2 0 12 11 21 25 l17 25 -124 128
c-536 552 -998 1151 -1504 1950 l-78 124 7 59 c10 104 28 117 100 75 35 -20
58 -52 141 -188 324 -536 600 -858 950 -1110 71 -51 233 -91 370 -91 188 0
323 54 462 187 l87 83 -63 39 c-253 154 -477 364 -691 645 -96 125 -281 404
-505 760 -77 122 -179 278 -227 347 -74 106 -88 133 -93 177 -5 36 -3 62 7 81
11 25 19 29 63 32 l50 3 49 -106 c180 -388 506 -729 1195 -1249 l103 -78 109
17 c96 16 109 20 109 38 0 11 -47 70 -114 141 -333 355 -521 588 -1061 1316
-245 329 -248 335 -246 379 1 25 3 47 5 48 1 2 17 -2 33 -8 20 -6 76 -60 153
-144 196 -216 339 -347 510 -467 120 -84 278 -122 412 -99 77 13 230 81 280
123 l27 23 -120 105 c-250 217 -539 543 -717 806 -109 162 -272 454 -272 486
0 7 8 30 18 51 l17 38 62 -88 c192 -272 483 -523 782 -673 l64 -32 22 24 22
23 -468 660 c-378 533 -468 666 -469 692 0 73 49 54 129 -47 35 -44 88 -103
118 -130 190 -174 426 -203 751 -94 8 2 -19 29 -65 63 -233 175 -391 412 -521
782 -63 176 -105 336 -187 694 -130 572 -178 734 -274 930 -98 198 -211 314
-395 404 -259 127 -562 119 -851 -23 -195 -96 -253 -152 -344 -333 -204 -408
-141 -828 146 -970 87 -43 132 -89 177 -183 29 -60 31 -73 31 -170 0 -159 -31
-225 -235 -499 -437 -587 -807 -936 -1210 -1138 -72 -36 -101 -44 -185 -54
-137 -16 -341 -7 -425 20 -125 39 -208 113 -254 227 l-24 59 41 7 c23 3 60 7
83 7 66 1 204 41 279 79 93 48 199 154 247 247 37 72 84 202 75 211 -2 3 -51
0 -108 -6 -135 -14 -417 -13 -494 1 -170 31 -247 87 -269 195 l-7 30 120 -4
c321 -12 456 83 469 328 l5 94 -63 -57 c-70 -63 -134 -93 -177 -82 -55 13
-197 200 -220 289 -27 103 -9 382 36 557 10 41 37 117 59 169 62 145 86 240
85 345 0 106 -20 172 -80 261 -76 112 -87 148 -59 202 24 46 47 59 111 64 136
10 204 74 311 293 42 86 74 159 71 161 -3 3 -43 -6 -89 -21 -265 -84 -554
-113 -799 -81 -145 20 -209 37 -389 106 -305 118 -538 154 -745 115z"/>
</g>
</svg>
